<?xml version="1.0" encoding="utf-8"?>
<!-- Generator: Adobe Illustrator 23.0.1, SVG Export Plug-In . SVG Version: 6.00 Build 0)  -->
<svg version="1.1" id="Layer_1" xmlns="http://www.w3.org/2000/svg" xmlns:xlink="http://www.w3.org/1999/xlink" x="0px" y="0px"
	 viewBox="0 0 1280 1024" style="enable-background:new 0 0 1280 1024;" xml:space="preserve">
<style type="text/css">
	.st0{fill:#E49306;}
	.st1{fill:#FFFFFF;}
	.st2{fill:#4D4D4D;}
	.st3{fill:#666666;}
	.st4{fill:#F15723;}
	.st5{fill:#333333;}
	.st6{fill:#F5815A;}
	.st7{fill:#E6E6E6;}
	.st8{fill:#CCCCCC;}
	.st9{fill:#E2421E;}
	.st10{fill:#999999;}
	.st11{fill:#1A1A1A;}
	.st12{fill:#F9B39A;}
	.st13{font-family:'Churchward69Black-Regular';}
	.st14{font-size:120px;}
</style>
<g>
	<path class="st0" d="M982.76,512c0,177.58-153.45,321.53-342.75,321.53c-189.3,0-342.76-143.95-342.76-321.53
		S450.7,190.47,640.01,190.47C829.3,190.47,982.76,334.42,982.76,512z"/>
	<g>
		<g>
			<path class="st1" d="M848.24,650.59c0,5.76-4.98,10.43-11.13,10.43H442.5c-6.15,0-11.13-4.67-11.13-10.43V280.41
				c0-5.76,4.98-10.44,11.13-10.44h394.61c6.15,0,11.13,4.68,11.13,10.44V650.59z"/>
		</g>
		<g>
			<g>
				<g>
					<path class="st2" d="M452.04,455.46c0,7.96-6.88,14.41-15.36,14.41h-9.97c-8.49,0-15.36-6.45-15.36-14.41v-31.05
						c0-7.96,6.87-14.41,15.36-14.41h9.97c8.48,0,15.36,6.44,15.36,14.41V455.46z"/>
				</g>
			</g>
			<g>
				<g>
					<path class="st2" d="M451.28,497.03c0,3.54-3.07,6.41-6.83,6.41h-17.07c-3.77,0-6.82-2.87-6.82-6.41v-16.02
						c0-3.53,3.05-6.4,6.82-6.4h17.07c3.76,0,6.83,2.87,6.83,6.4V497.03z"/>
				</g>
			</g>
			<g>
				<g>
					<g>
						<path class="st3" d="M464.33,516.87h-9.22c-10.59,0-19.2-8.08-19.2-18.01V406.4c0-9.93,8.61-18.01,19.2-18.01h19.2v7.2h-19.2
							c-6.35,0-11.52,4.84-11.52,10.81v92.46c0,5.95,5.17,10.81,11.52,10.81h9.22V516.87z"/>
					</g>
				</g>
			</g>
		</g>
		<g>
			<g>
				<g>
					<path class="st2" d="M827.96,455.46c0,7.96,6.89,14.41,15.37,14.41h9.98c8.48,0,15.36-6.45,15.36-14.41v-31.05
						c0-7.96-6.88-14.41-15.36-14.41h-9.98c-8.48,0-15.37,6.44-15.37,14.41V455.46z"/>
				</g>
			</g>
			<g>
				<g>
					<path class="st2" d="M828.73,497.03c0,3.54,3.06,6.41,6.83,6.41h17.06c3.79,0,6.83-2.87,6.83-6.41v-16.02
						c0-3.53-3.04-6.4-6.83-6.4h-17.06c-3.77,0-6.83,2.87-6.83,6.4V497.03z"/>
				</g>
			</g>
			<g>
				<g>
					<g>
						<path class="st3" d="M815.68,516.87h9.22c10.58,0,19.19-8.08,19.19-18.01V406.4c0-9.93-8.61-18.01-19.19-18.01h-19.2v7.2h19.2
							c6.35,0,11.52,4.84,11.52,10.81v92.46c0,5.95-5.18,10.81-11.52,10.81h-9.22V516.87z"/>
					</g>
				</g>
			</g>
		</g>
		<g>
			<g>
				<path class="st4" d="M820.29,577.51c0,7.95-6.88,14.41-15.36,14.41H474.69c-8.48,0-15.35-6.45-15.35-14.41V429.82
					c0-7.96,6.87-14.41,15.35-14.41h330.24c8.49,0,15.36,6.45,15.36,14.41V577.51z"/>
			</g>
		</g>
		<g>
			<g>
				<path class="st4" d="M868.28,665.75c0,7.96-6.88,14.41-15.36,14.41H426.69c-8.48,0-15.36-6.45-15.36-14.41l7.68-70.93
					c0-7.96,6.88-14.4,15.35-14.4h410.87c8.48,0,15.36,6.44,15.36,14.4L868.28,665.75z"/>
			</g>
		</g>
		<g>
			<g>
				<path class="st5" d="M482.37,789.44c0,7.95-6.87,14.41-15.35,14.41h-29.7c-8.48,0-15.35-6.45-15.35-14.41v-28.82
					c0-7.96,6.87-14.41,15.35-14.41h29.7c8.48,0,15.35,6.45,15.35,14.41V789.44z"/>
			</g>
		</g>
		<g>
			<g>
				<path class="st2" d="M576.33,771.43c0,7.95-6.88,14.41-15.37,14.41h-29.69c-8.47,0-15.36-6.46-15.36-14.41v-28.81
					c0-7.97,6.88-14.42,15.36-14.42h29.69c8.49,0,15.37,6.45,15.37,14.42V771.43z"/>
			</g>
		</g>
		<g>
			<g>
				<path class="st2" d="M762.69,771.43c0,7.95-6.87,14.41-15.36,14.41h-29.68c-8.49,0-15.37-6.46-15.37-14.41v-28.81
					c0-7.97,6.87-14.42,15.37-14.42h29.68c8.49,0,15.36,6.45,15.36,14.42V771.43z"/>
			</g>
		</g>
		<g>
			<g>
				<path class="st5" d="M857.67,789.44c0,7.95-6.87,14.41-15.36,14.41h-29.69c-8.48,0-15.36-6.45-15.36-14.41v-28.82
					c0-7.96,6.88-14.41,15.36-14.41h29.69c8.49,0,15.36,6.45,15.36,14.41V789.44z"/>
			</g>
		</g>
		<g>
			<g>
				<path class="st4" d="M797.25,307.34c0,7.97-37.59,14.41-46.07,14.41H528.46c-8.49,0-46.09-6.45-46.09-14.41l30.72-59.43
					c0-7.95,6.88-14.41,15.37-14.41h222.72c8.48,0,15.36,6.45,15.36,14.41L797.25,307.34z"/>
			</g>
		</g>
		<g>
			<g>
				<path class="st4" d="M803.97,366.78c0,7.95-6.88,14.41-15.36,14.41h-297.6c-8.48,0-15.36-6.46-15.36-14.41v-50.44
					c0-7.95,6.88-14.4,15.36-14.4h297.6c8.48,0,15.36,6.45,15.36,14.4V366.78z"/>
			</g>
		</g>
		<g>
			<g>
				<path class="st6" d="M868.28,742.62c0,7.95-6.88,14.41-15.36,14.41H426.69c-8.48,0-15.36-6.46-15.36-14.41v-51.64
					c0-7.95,6.88-14.41,15.36-14.41h426.24c8.48,0,15.36,6.46,15.36,14.41V742.62z"/>
			</g>
		</g>
		<g>
			<g>
				<rect x="420.3" y="698.18" class="st7" width="439.03" height="33.62"/>
			</g>
		</g>
		<g>
			<g>
				<g>
					<g>
						<path class="st2" d="M731.01,636.94c0,7.96-6.88,14.41-15.36,14.41H563.97c-8.48,0-15.36-6.45-15.36-14.41v-95.46
							c0-7.95,6.87-14.41,15.36-14.41h151.67c8.48,0,15.36,6.45,15.36,14.41V636.94z"/>
					</g>
				</g>
				<g>
					<g>
						<path class="st7" d="M715.65,654.95H563.97c-10.59,0-19.21-8.08-19.21-18.01v-95.46c0-9.93,8.62-18.01,19.21-18.01h151.67
							c10.59,0,19.2,8.07,19.2,18.01v95.46C734.85,646.87,726.24,654.95,715.65,654.95z M563.97,530.68
							c-6.36,0-11.53,4.85-11.53,10.81v95.46c0,5.96,5.17,10.81,11.53,10.81h151.67c6.35,0,11.51-4.84,11.51-10.81v-95.46
							c0-5.96-5.16-10.81-11.51-10.81H563.97z"/>
					</g>
				</g>
			</g>
			<g>
				<g>
					<g>
						<rect x="709.66" y="530.68" class="st3" width="4.08" height="117.07"/>
					</g>
				</g>
			</g>
			<g>
				<g>
					<g>
						<g>
							<rect x="565.89" y="530.68" class="st3" width="4.08" height="117.07"/>
						</g>
					</g>
				</g>
				<g>
					<g>
						<g>
							<rect x="586.42" y="530.68" class="st3" width="4.08" height="117.07"/>
						</g>
					</g>
				</g>
				<g>
					<g>
						<g>
							<rect x="606.97" y="530.68" class="st3" width="4.08" height="117.07"/>
						</g>
					</g>
				</g>
				<g>
					<g>
						<g>
							<rect x="627.5" y="530.68" class="st3" width="4.09" height="117.07"/>
						</g>
					</g>
				</g>
				<g>
					<g>
						<g>
							<rect x="648.04" y="530.68" class="st3" width="4.09" height="117.07"/>
						</g>
					</g>
				</g>
				<g>
					<g>
						<g>
							<rect x="668.58" y="530.68" class="st3" width="4.08" height="117.07"/>
						</g>
					</g>
				</g>
				<g>
					<g>
						<g>
							<rect x="689.11" y="530.68" class="st3" width="4.08" height="117.07"/>
						</g>
					</g>
				</g>
				<g>
					<g>
						<g>
							<rect x="709.66" y="530.68" class="st3" width="4.08" height="117.07"/>
						</g>
					</g>
				</g>
			</g>
			<g>
				<g>
					<g>
						<g>
							<rect x="552.45" y="635.46" class="st3" width="174.72" height="3.83"/>
						</g>
					</g>
				</g>
				<g>
					<g>
						<g>
							<rect x="552.45" y="616.19" class="st3" width="174.72" height="3.82"/>
						</g>
					</g>
				</g>
				<g>
					<g>
						<g>
							<rect x="552.45" y="596.93" class="st3" width="174.72" height="3.83"/>
						</g>
					</g>
				</g>
				<g>
					<g>
						<g>
							<rect x="552.45" y="577.66" class="st3" width="174.72" height="3.83"/>
						</g>
					</g>
				</g>
				<g>
					<g>
						<g>
							<rect x="552.45" y="558.4" class="st3" width="174.72" height="3.83"/>
						</g>
					</g>
				</g>
				<g>
					<g>
						<g>
							<rect x="552.45" y="539.13" class="st3" width="174.72" height="3.83"/>
						</g>
					</g>
				</g>
			</g>
		</g>
		<g>
			<g>
				<path class="st6" d="M779.48,311.84c0,5.48-4.72,9.91-10.56,9.91H510.69c-5.83,0-10.56-4.43-10.56-9.91l0,0
					c0-5.47,4.73-9.9,10.56-9.9h258.23C774.77,301.94,779.48,306.37,779.48,311.84L779.48,311.84z"/>
			</g>
		</g>
		<g>
			<g>
				<g>
					<path class="st8" d="M546.28,284.83c0,6.21-5.38,11.25-12.01,11.25c-6.62,0-11.99-5.04-11.99-11.25
						c0-6.23,5.37-11.26,11.99-11.26C540.9,273.57,546.28,278.6,546.28,284.83z"/>
				</g>
				<g>
					<path class="st6" d="M534.27,299.69c-8.73,0-15.83-6.68-15.83-14.86c0-8.19,7.1-14.86,15.83-14.86
						c8.74,0,15.85,6.67,15.85,14.86C550.12,293.01,543,299.69,534.27,299.69z M534.27,277.18c-4.49,0-8.15,3.42-8.15,7.65
						c0,4.22,3.66,7.65,8.15,7.65c4.5,0,8.16-3.43,8.16-7.65C542.43,280.6,538.77,277.18,534.27,277.18z"/>
				</g>
			</g>
			<g>
				<g>
					<path class="st8" d="M579.62,284.83c0,6.21-5.36,11.25-11.98,11.25c-6.63,0-12.02-5.04-12.02-11.25
						c0-6.23,5.38-11.26,12.02-11.26C574.26,273.57,579.62,278.6,579.62,284.83z"/>
				</g>
				<g>
					<path class="st6" d="M567.64,299.69c-8.74,0-15.85-6.68-15.85-14.86c0-8.19,7.11-14.86,15.85-14.86
						c8.72,0,15.83,6.67,15.83,14.86C583.47,293.01,576.37,299.69,567.64,299.69z M567.64,277.18c-4.51,0-8.17,3.42-8.17,7.65
						c0,4.22,3.66,7.65,8.17,7.65c4.49,0,8.15-3.43,8.15-7.65C575.79,280.6,572.13,277.18,567.64,277.18z"/>
				</g>
			</g>
			<g>
				<g>
					<path class="st8" d="M723.99,284.83c0,6.21-5.38,11.25-12,11.25c-6.62,0-12.01-5.04-12.01-11.25c0-6.23,5.38-11.26,12.01-11.26
						C718.61,273.57,723.99,278.6,723.99,284.83z"/>
				</g>
				<g>
					<path class="st6" d="M711.99,299.69c-8.74,0-15.85-6.68-15.85-14.86c0-8.19,7.1-14.86,15.85-14.86
						c8.73,0,15.85,6.67,15.85,14.86C727.84,293.01,720.72,299.69,711.99,299.69z M711.99,277.18c-4.5,0-8.16,3.42-8.16,7.65
						c0,4.22,3.66,7.65,8.16,7.65c4.51,0,8.16-3.43,8.16-7.65C720.15,280.6,716.5,277.18,711.99,277.18z"/>
				</g>
			</g>
			<g>
				<g>
					<path class="st8" d="M757.35,284.83c0,6.21-5.37,11.25-12.01,11.25c-6.62,0-11.99-5.04-11.99-11.25
						c0-6.23,5.37-11.26,11.99-11.26C751.98,273.57,757.35,278.6,757.35,284.83z"/>
				</g>
				<g>
					<path class="st6" d="M745.34,299.69c-8.73,0-15.83-6.68-15.83-14.86c0-8.19,7.11-14.86,15.83-14.86
						c8.74,0,15.84,6.67,15.84,14.86C761.19,293.01,754.08,299.69,745.34,299.69z M745.34,277.18c-4.49,0-8.15,3.42-8.15,7.65
						c0,4.22,3.66,7.65,8.15,7.65c4.51,0,8.17-3.43,8.17-7.65C753.51,280.6,749.85,277.18,745.34,277.18z"/>
				</g>
			</g>
		</g>
		<g>
			<g>
				<g>
					<path class="st9" d="M621.09,292.5c0,1.98-1.71,3.58-3.82,3.58l0,0c-2.11,0-3.83-1.61-3.83-3.58V247c0-2,1.72-3.6,3.83-3.6l0,0
						c2.11,0,3.82,1.61,3.82,3.6V292.5z"/>
				</g>
			</g>
			<g>
				<g>
					<path class="st9" d="M643.64,292.5c0,1.98-1.72,3.58-3.83,3.58l0,0c-2.12,0-3.83-1.61-3.83-3.58V247c0-2,1.71-3.6,3.83-3.6l0,0
						c2.11,0,3.83,1.61,3.83,3.6V292.5z"/>
				</g>
			</g>
			<g>
				<g>
					<path class="st9" d="M666.17,292.5c0,1.98-1.71,3.58-3.82,3.58l0,0c-2.11,0-3.82-1.61-3.82-3.58V247c0-2,1.71-3.6,3.82-3.6l0,0
						c2.11,0,3.82,1.61,3.82,3.6V292.5z"/>
				</g>
			</g>
		</g>
		<g>
			<g>
				<path class="st2" d="M731.76,716.79c0,4.31-3.72,7.81-8.32,7.81H556.18c-4.59,0-8.32-3.5-8.32-7.81l0,0
					c0-4.31,3.73-7.81,8.32-7.81h167.27C728.05,708.98,731.76,712.48,731.76,716.79L731.76,716.79z"/>
			</g>
		</g>
		<g>
			<g>
				<g>
					<path class="st6" d="M526.74,653c0,8.53-7.37,15.45-16.47,15.45h-69.67c-9.09,0-16.47-6.92-16.47-15.45v-49.26
						c0-8.53,7.38-15.45,16.47-15.45h69.67c9.1,0,16.47,6.92,16.47,15.45V653z"/>
				</g>
			</g>
			<g>
				<g>
					<g>
						<g>
							<path class="st8" d="M513.45,608.52v28.19c0,6.57-5.09,12-11.81,13.07c-0.76,0.13-1.54,0.19-2.34,0.19h-47.73
								c-7.77,0-14.13-5.97-14.13-13.26v-28.52c0.21-7.17,6.51-12.95,14.13-12.95h47.73C507.09,595.24,513.45,601.21,513.45,608.52z
								"/>
						</g>
					</g>
					<g>
						<g>
							<path class="st5" d="M500.8,633.87c0,8.58-7.4,15.53-16.55,15.53h-17.6c-9.15,0-16.57-6.96-16.57-15.53v-21.65
								c0-8.58,7.42-15.53,16.57-15.53h17.6c9.15,0,16.55,6.95,16.55,15.53V633.87z"/>
						</g>
					</g>
					<g>
						<g>
							<g>
								<path class="st10" d="M477.31,610.43c0,6.34-5.47,11.47-12.24,11.47c-6.76,0-12.22-5.14-12.22-11.47
									c0-6.34,5.46-11.47,12.22-11.47C471.84,598.97,477.31,604.1,477.31,610.43z"/>
							</g>
						</g>
						<g>
							<g>
								<path class="st10" d="M498.04,629.87c0,8.3-7.17,15.02-16.02,15.02c-8.84,0-16.01-6.72-16.01-15.02
									c0-8.29,7.16-15.01,16.01-15.01C490.86,614.85,498.04,621.57,498.04,629.87z"/>
							</g>
						</g>
						<g>
							<g>
								<path class="st3" d="M493.9,629.28c0,6.17-5.31,11.15-11.88,11.15c-6.57,0-11.88-4.98-11.88-11.15
									c0-6.15,5.31-11.15,11.88-11.15C488.59,618.12,493.9,623.12,493.9,629.28z"/>
							</g>
						</g>
						<g>
							<g>
								<path class="st3" d="M472.93,610.43c0,4.06-3.51,7.36-7.85,7.36c-4.33,0-7.84-3.3-7.84-7.36c0-4.05,3.5-7.35,7.84-7.35
									C469.42,603.08,472.93,606.38,472.93,610.43z"/>
							</g>
						</g>
						<g>
							<g>
								<ellipse class="st1" cx="466.01" cy="608.73" rx="5.46" ry="5.12"/>
							</g>
						</g>
						<g>
							<g>
								<path class="st1" d="M490.74,624.76c0,2.82-2.43,5.11-5.45,5.11c-3.01,0-5.45-2.29-5.45-5.11c0-2.82,2.44-5.12,5.45-5.12
									C488.31,619.64,490.74,621.94,490.74,624.76z"/>
							</g>
						</g>
					</g>
					<g>
						<g>
							<path class="st10" d="M515.44,654.68c0,3.76-3.25,6.82-7.26,6.82h-65.46c-4.02,0-7.28-3.06-7.28-6.82l0,0
								c0-3.76,3.27-6.82,7.28-6.82h65.46C512.19,647.85,515.44,650.91,515.44,654.68L515.44,654.68z"/>
						</g>
					</g>
				</g>
				<g>
					<g>
						<path class="st1" d="M510.18,654.68c0,1.99-1.72,3.6-3.83,3.6h-27.07c-2.11,0-3.83-1.61-3.83-3.6l0,0
							c0-1.99,1.72-3.6,3.83-3.6h27.07C508.46,651.07,510.18,652.69,510.18,654.68L510.18,654.68z"/>
					</g>
				</g>
			</g>
		</g>
		<g>
			<g>
				<g>
					<path class="st6" d="M745.94,653c0,8.53,7.38,15.45,16.48,15.45h69.67c9.09,0,16.47-6.92,16.47-15.45v-49.26
						c0-8.53-7.38-15.45-16.47-15.45h-69.67c-9.1,0-16.48,6.92-16.48,15.45V653z"/>
				</g>
			</g>
			<g>
				<g>
					<g>
						<g>
							<path class="st8" d="M759.24,608.52v28.19c0,6.57,5.09,12,11.81,13.07c0.76,0.13,1.55,0.19,2.34,0.19h47.73
								c7.78,0,14.13-5.97,14.13-13.26v-28.52c-0.22-7.17-6.5-12.95-14.13-12.95h-47.73C765.61,595.24,759.24,601.21,759.24,608.52z
								"/>
						</g>
					</g>
					<g>
						<g>
							<path class="st5" d="M771.9,633.87c0,8.58,7.4,15.53,16.54,15.53h17.61c9.16,0,16.56-6.96,16.56-15.53v-21.65
								c0-8.58-7.41-15.53-16.56-15.53h-17.61c-9.14,0-16.54,6.95-16.54,15.53V633.87z"/>
						</g>
					</g>
					<g>
						<g>
							<g>
								<path class="st10" d="M795.39,610.43c0,6.34,5.47,11.47,12.21,11.47c6.77,0,12.23-5.14,12.23-11.47
									c0-6.34-5.46-11.47-12.23-11.47C800.86,598.97,795.39,604.1,795.39,610.43z"/>
							</g>
						</g>
						<g>
							<g>
								<path class="st10" d="M774.67,629.87c0,8.3,7.15,15.02,15.99,15.02c8.86,0,16.01-6.72,16.01-15.02
									c0-8.29-7.15-15.01-16.01-15.01C781.83,614.85,774.67,621.57,774.67,629.87z"/>
							</g>
						</g>
						<g>
							<g>
								<path class="st3" d="M778.78,629.28c0,6.17,5.33,11.15,11.89,11.15c6.58,0,11.89-4.98,11.89-11.15
									c0-6.15-5.31-11.15-11.89-11.15C784.1,618.12,778.78,623.12,778.78,629.28z"/>
							</g>
						</g>
						<g>
							<g>
								<path class="st3" d="M799.76,610.43c0,4.06,3.52,7.36,7.85,7.36c4.33,0,7.85-3.3,7.85-7.36c0-4.05-3.52-7.35-7.85-7.35
									C803.27,603.08,799.76,606.38,799.76,610.43z"/>
							</g>
						</g>
						<g>
							<g>
								<path class="st1" d="M801.22,608.73c0,2.82,2.44,5.12,5.46,5.12c3.02,0,5.46-2.3,5.46-5.12c0-2.82-2.44-5.12-5.46-5.12
									C803.66,603.62,801.22,605.92,801.22,608.73z"/>
							</g>
						</g>
						<g>
							<g>
								<path class="st1" d="M781.95,624.76c0,2.82,2.44,5.11,5.46,5.11c2.99,0,5.44-2.29,5.44-5.11c0-2.82-2.45-5.12-5.44-5.12
									C784.39,619.64,781.95,621.94,781.95,624.76z"/>
							</g>
						</g>
					</g>
					<g>
						<g>
							<path class="st10" d="M757.25,654.68c0,3.76,3.26,6.82,7.26,6.82h65.46c4.02,0,7.29-3.06,7.29-6.82l0,0
								c0-3.76-3.26-6.82-7.29-6.82h-65.46C760.51,647.85,757.25,650.91,757.25,654.68L757.25,654.68z"/>
						</g>
					</g>
				</g>
				<g>
					<g>
						<path class="st1" d="M798.08,654.68c0,1.99,1.72,3.6,3.84,3.6h27.06c2.12,0,3.84-1.61,3.84-3.6l0,0c0-1.99-1.72-3.6-3.84-3.6
							h-27.06C799.81,651.07,798.08,652.69,798.08,654.68L798.08,654.68z"/>
					</g>
				</g>
			</g>
		</g>
		<g>
			<g>
				<path class="st9" d="M803.97,371.73c0,5.21-4.5,9.45-10.08,9.45H485.74c-5.58,0-10.09-4.24-10.09-9.45l0,0
					c0-5.22,4.51-9.45,10.09-9.45h308.15C799.47,362.28,803.97,366.51,803.97,371.73L803.97,371.73z"/>
			</g>
		</g>
		<g>
			<g>
				<g>
					<g>
						<path class="st5" d="M487.17,478.44c-10.58,0-19.19-8.08-19.19-18.01l7.7-65.23c-0.03-9.54,8.58-17.62,19.18-17.62h289.91
							c10.59,0,19.2,8.08,19.2,18.01l7.66,64.45c0.03,10.32-8.59,18.4-19.18,18.4H487.17z"/>
					</g>
				</g>
				<g>
					<g>
						<path class="st4" d="M784.77,381.19c8.45,0,15.36,6.49,15.36,14.41l7.67,64.84c0,7.93-6.92,14.41-15.35,14.41H487.17
							c-8.51,0-15.36-6.49-15.36-14.41l7.69-64.84c0-7.92,6.83-14.41,15.36-14.41H784.77L784.77,381.19z M784.77,373.99H494.86
							c-12.55,0-22.78,9.44-23.05,21.17l-7.63,64.48l-0.04,0.41v0.39c0,11.92,10.33,21.61,23.03,21.61h305.28
							c12.71,0,23.04-9.7,23.04-21.61v-0.39l-0.05-0.41l-7.64-64.48C807.56,383.43,797.32,373.99,784.77,373.99L784.77,373.99z"/>
					</g>
				</g>
			</g>
			<g>
				<g>
					<path class="st11" d="M510.14,391.13v79.53c0,1.44-0.24,2.89-0.62,4.18h-22.35c-8.51,0-15.36-6.49-15.36-14.41l7.69-64.84
						c0-7.92,6.83-14.41,15.36-14.41h11.13C508.6,383.77,510.14,387.23,510.14,391.13z"/>
				</g>
			</g>
			<g>
				<g>
					<path class="st11" d="M769.41,391.13v79.53c0,1.44,0.24,2.89,0.61,4.18h22.35c8.53,0,15.36-6.49,15.36-14.41l-7.68-64.84
						c0-7.92-6.83-14.41-15.36-14.41h-11.14C770.96,383.77,769.41,387.23,769.41,391.13z"/>
				</g>
			</g>
		</g>
		<g>
			<g>
				<path class="st6" d="M717.23,524.46H553.55c-8.47,0-79.81-48.14-79.81-48.14c0-7.95,6.88-6.45,15.35-6.45h301.44
					c8.48,0,15.36-1.5,15.36,6.45C805.89,476.32,725.7,524.46,717.23,524.46z"/>
			</g>
		</g>
		<g>
			<g>
				<path class="st12" d="M806.85,474.08c-1.98-3.31-6.44-4.48-9.96-2.62l-73.96,38.92H557.89c-0.23-0.15-0.38-0.38-0.63-0.5
					l-74.52-39.23c-3.53-1.86-7.98-0.68-9.96,2.62c-1.98,3.31-0.73,7.48,2.81,9.34l74.53,39.23c1.25,0.66,2.61,0.8,3.95,0.75
					c1.02,0.55,2.14,0.95,3.4,0.95h168.51c0.15,0,0.26-0.06,0.4-0.08c0.42-0.02,0.85-0.14,1.28-0.24c0.5-0.12,0.98-0.22,1.41-0.44
					c0.14-0.06,0.3-0.06,0.45-0.13l74.52-39.23C807.56,481.56,808.81,477.39,806.85,474.08z"/>
			</g>
		</g>
		<g>
			<g>
				<path class="st1" d="M733.19,511.05c0,4.21-3.63,7.62-8.11,7.62h-17.14c-4.48,0-8.11-3.41-8.11-7.62l0,0
					c0-4.2,3.63-7.61,8.11-7.61h17.14C729.56,503.44,733.19,506.85,733.19,511.05L733.19,511.05z"/>
			</g>
		</g>
		<g>
			<g>
				<path class="st5" d="M745.19,421.26c0,6.21-5.36,11.26-12,11.26h-34.57c-6.63,0-12-5.04-12-11.26l0,0
					c0-6.21,5.37-11.26,12-11.26h34.57C739.83,410,745.19,415.05,745.19,421.26L745.19,421.26z"/>
			</g>
		</g>
		<g>
			<g>
				<path class="st11" d="M751.25,446.89v22.98h-70.66v-22.98c0-7.93,6.84-14.41,15.36-14.41h39.94
					C744.34,432.48,751.25,438.97,751.25,446.89z"/>
			</g>
		</g>
		<g>
			<g>
				<path class="st11" d="M596.76,421.26c0,6.21-5.38,11.26-12,11.26h-34.59c-6.62,0-12-5.04-12-11.26l0,0
					c0-6.21,5.38-11.26,12-11.26h34.59C591.39,410,596.76,415.05,596.76,421.26L596.76,421.26z"/>
			</g>
		</g>
		<g>
			<g>
				<path class="st11" d="M602.81,446.89v22.98h-70.65v-22.98c0-7.93,6.84-14.41,15.35-14.41h39.93
					C595.9,432.48,602.81,438.97,602.81,446.89z"/>
			</g>
		</g>
		<g>
			<g>
				<path class="st1" d="M778.78,425.53c0,7.95-6.87,14.41-15.35,14.41H631.56c-8.48,0-15.36-6.46-15.36-14.41V410
					c0-7.96,6.88-14.41,15.36-14.41h131.87c8.48,0,15.35,6.45,15.35,14.41V425.53z"/>
			</g>
		</g>
	</g>
</g>
<text transform="matrix(1 0 0 1 277.0674 963)" class="st1 st13 st14">LA TRAILERA</text>
</svg>
